<svg xmlns:xlink="http://www.w3.org/1999/xlink" viewBox="0 0 10653 3972" style="shape-rendering:geometricPrecision; text-rendering:geometricPrecision; image-rendering:optimizeQuality; fill-rule:evenodd; clip-rule:evenodd" version="1.1" height="3.97222in" width="10.6528in" xml:space="preserve" xmlns="http://www.w3.org/2000/svg">
 <defs>
  <style type="text/css">
   
    .fil0 {fill:#283555}
    .fil6 {fill:#ED3237;fill-rule:nonzero}
    .fil5 {fill:#283555;fill-rule:nonzero}
    .fil2 {fill:url(#id0)}
    .fil1 {fill:url(#id1)}
    .fil3 {fill:url(#id2)}
    .fil4 {fill:url(#id3)}
   
  </style>
  <linearGradient y2="1318" x2="2430" y1="1318" x1="1529" gradientUnits="userSpaceOnUse" id="id0">
   <stop style="stop-opacity:1; stop-color:#6D8EC8" offset="0"></stop>
   <stop style="stop-opacity:1; stop-color:#6D8EC8" offset="0.168627"></stop>
   <stop style="stop-opacity:1; stop-color:#6D8EC8" offset="0.760784"></stop>
   <stop style="stop-opacity:1; stop-color:#6D8EC8" offset="1"></stop>
  </linearGradient>
  <linearGradient y2="785" x2="1771" y1="770" x1="924" gradientUnits="userSpaceOnUse" id="id1">
   <stop style="stop-opacity:1; stop-color:#6C8FC9" offset="0"></stop>
   <stop style="stop-opacity:1; stop-color:#6C90C9" offset="0.168627"></stop>
   <stop style="stop-opacity:1; stop-color:#6D8EC8" offset="0.760784"></stop>
   <stop style="stop-opacity:1; stop-color:#6C8FC9" offset="1"></stop>
  </linearGradient>
  <linearGradient y2="1313" x2="2434" y1="1313" x1="982" gradientUnits="userSpaceOnUse" id="id2">
   <stop style="stop-opacity:1; stop-color:#6D8EC8" offset="0"></stop>
   <stop style="stop-opacity:1; stop-color:#6C90C9" offset="0.0784314"></stop>
   <stop style="stop-opacity:1; stop-color:#6C90C9" offset="0.721569"></stop>
   <stop style="stop-opacity:1; stop-color:#6D8EC8" offset="1"></stop>
  </linearGradient>
  <linearGradient y2="1735" x2="1788" y1="1769" x1="484" gradientUnits="userSpaceOnUse" id="id3">
   <stop style="stop-opacity:1; stop-color:#FEFEFE" offset="0"></stop>
   <stop style="stop-opacity:1; stop-color:#283555" offset="0.168627"></stop>
   <stop style="stop-opacity:1; stop-color:#283555" offset="0.85098"></stop>
   <stop style="stop-opacity:1; stop-color:#283555" offset="1"></stop>
  </linearGradient>
 </defs>
 <g id="Layer_x0020_1">
  <metadata id="CorelCorpID_0Corel-Layer"></metadata>
  <path d="M1586 2395c-45,9 -325,20 -371,6 -108,-34 9,-246 -102,-368 -52,-57 -138,-69 -211,-70 45,66 48,43 47,191 0,97 -12,278 21,348 51,109 145,120 253,120 44,0 335,3 364,-5 72,-19 111,-49 152,-110 39,-60 30,-230 30,-303 -20,82 -91,173 -183,192z" class="fil0"></path>
  <path d="M957 1756c-126,-75 -405,-13 -454,-50 -20,-15 -24,-22 -27,-68 -1,-43 -1,-212 -1,-272 -223,14 -223,165 -215,399 17,82 89,163 177,171 81,7 49,8 131,5 107,1 346,-7 428,11 54,8 154,52 169,157 1,-105 -13,-129 -36,-191 -25,-70 -108,-135 -173,-161z" class="fil0"></path>
  <path d="M1768 1979c-4,-423 61,-864 -328,-871l-509 0c-124,-1 -252,2 -377,1 -251,4 -291,127 -294,392 38,-118 93,-143 244,-149 278,-1 556,0 833,-2 111,-1 153,83 180,223 2,223 1,642 0,802 144,-2 204,-84 252,-209l-1 -188z" class="fil0"></path>
  <path d="M1109 660c45,-9 325,-20 371,-5 108,34 -9,246 102,368 52,57 138,69 211,71 -45,-67 -48,-43 -47,-191 0,-97 12,-278 -21,-348 -51,-109 -145,-121 -252,-120 -44,0 -335,-3 -364,4 -72,19 -111,49 -152,110 -39,60 -30,229 -31,303 20,-82 91,-173 183,-192l0 0z" class="fil1"></path>
  <path d="M1737 1299c126,75 405,14 454,50 20,15 24,22 27,68 1,43 1,212 0,272 223,-14 223,-165 215,-398 -17,-82 -89,-163 -177,-171 -81,-7 -49,-8 -131,-5 -107,-1 -346,7 -428,-11 -54,-8 -154,-52 -169,-157 -1,105 13,129 35,191 25,70 108,135 173,162z" class="fil2"></path>
  <path d="M926 1076c4,423 -62,864 327,871l509 1c124,1 252,-2 377,0 251,-4 291,-127 294,-392 -38,118 -93,143 -244,149 -278,0 -556,0 -833,2 -111,1 -153,-83 -180,-224 -2,-223 -1,-642 1,-802 -144,2 -204,83 -252,209l1 188z" class="fil3"></path>
  <path d="M1266 1342c26,0 38,0 63,0 204,-3 194,170 191,615l-2 419c140,-3 212,-69 252,-209l-1 -181c-7,-423 104,-869 -328,-870l-174 0 -1 226z" class="fil4"></path>
 </g>
 <g id="Layer_x0020_1_0">
  <metadata id="CorelCorpID_1Corel-Layer"></metadata>
  <path d="M2223 2440m831 -478l-474 0 -59 164c-18,53 -27,99 -27,134 0,48 14,83 45,106 18,13 63,23 133,30l0 43 -449 0 0 -43c49,-10 88,-35 118,-76 33,-40 71,-126 116,-255l484 -1335 18 0 488 1373c47,132 84,215 114,248 22,25 55,40 96,46l0 43 -654 0 0 -43 27 0c53,0 90,-10 110,-28 14,-13 22,-33 22,-58 0,-15 -2,-30 -6,-46 -2,-8 -12,-40 -31,-94l-74 -210zm-33 -91l-200 -572 -208 572 408 0z" class="fil5"></path>
  <path d="M3671 2440m411 -1034l2 802c0,78 6,126 20,147 20,30 59,46 116,43l0 43 -549 0 0 -43c43,0 71,-8 90,-18 18,-13 31,-28 37,-48 6,-20 10,-61 10,-124l-2 -802 -131 0 0 -121 131 0 0 -83 0 -58c0,-119 35,-220 104,-298 71,-78 165,-119 284,-119 82,0 143,18 182,56 39,38 59,81 59,126 0,38 -12,68 -37,96 -25,28 -57,40 -98,40 -35,0 -61,-10 -82,-33 -20,-23 -31,-48 -31,-73 0,-8 2,-23 6,-46 2,-15 4,-28 4,-40 0,-18 -4,-30 -12,-38 -10,-13 -22,-18 -39,-18 -18,0 -35,10 -49,30 -12,20 -18,51 -18,94l0 218 2 147 139 0 0 121 -139 0z" class="fil5"></path>
  <path d="M4246 2440m402 -1581l0 425 221 0 0 121 -221 0 0 713c0,68 2,111 8,129 4,20 12,35 27,48 12,13 22,18 35,18 43,0 84,-40 121,-121l31 28c-53,157 -141,235 -261,235 -59,0 -110,-20 -151,-61 -41,-40 -67,-86 -78,-137 -6,-28 -10,-104 -10,-228l0 -625 -123 0 0 -43c84,-73 155,-152 214,-233 59,-81 110,-172 155,-271l33 0z" class="fil5"></path>
  <path d="M4892 2440m780 -620l-513 0c6,152 39,273 100,362 45,68 100,104 165,104 39,0 76,-15 108,-40 33,-28 67,-78 104,-149l35 28c-51,126 -106,218 -167,271 -61,53 -133,78 -212,78 -139,0 -243,-66 -315,-197 -57,-106 -86,-238 -86,-395 0,-192 43,-347 127,-460 84,-114 182,-169 296,-169 94,0 176,48 245,144 69,94 106,238 112,425zm-245 -81c0,-132 -6,-223 -16,-273 -12,-48 -31,-86 -55,-111 -14,-15 -33,-23 -57,-23 -33,0 -61,20 -84,63 -39,73 -59,172 -59,301l0 43 272 0z" class="fil5"></path>
  <path d="M5716 2440m382 -1156l0 263c61,-119 116,-200 163,-238 45,-38 90,-58 133,-58 37,0 67,15 90,43 22,28 33,68 33,119 0,56 -10,99 -33,129 -20,30 -47,46 -78,46 -35,0 -65,-15 -90,-43 -27,-28 -43,-43 -47,-46 -6,-5 -14,-8 -22,-8 -18,0 -37,8 -55,28 -27,28 -47,68 -61,119 -20,81 -31,167 -31,266l0 263 0 71c0,48 2,78 8,91 6,23 18,38 35,48 16,10 43,18 80,20l0 43 -507 0 0 -43c41,-5 69,-18 84,-40 14,-25 20,-86 20,-187l0 -640c0,-68 -2,-109 -8,-129 -6,-23 -16,-40 -29,-51 -12,-10 -35,-18 -67,-23l0 -43 382 0z" class="fil5"></path>
  <path d="M6550 2440m711 -1697c214,-10 390,68 525,233 135,167 202,372 202,622 0,210 -51,397 -151,559 -133,215 -321,321 -564,321 -243,0 -431,-101 -566,-306 -104,-162 -157,-352 -157,-574 0,-248 69,-455 206,-622 137,-164 304,-243 504,-233zm12 78c-125,0 -219,78 -284,235 -53,126 -80,311 -80,551 0,286 41,496 123,632 57,96 137,144 239,144 67,0 125,-20 172,-61 59,-53 104,-139 137,-253 33,-116 49,-268 49,-453 0,-220 -16,-387 -49,-496 -35,-111 -78,-187 -129,-233 -51,-46 -110,-68 -178,-68z" class="fil5"></path>
  <path d="M8047 2440m907 -1156l0 905c0,89 6,144 20,164 12,23 39,38 80,43l0 43 -380 0 0 -154c-45,66 -90,114 -133,142 -45,30 -96,46 -151,46 -51,0 -98,-20 -139,-61 -41,-40 -69,-86 -84,-139 -12,-53 -20,-147 -20,-281l0 -458c0,-89 -6,-144 -18,-164 -14,-23 -41,-35 -82,-43l0 -43 380 0 0 789c0,83 4,137 10,159 6,25 16,43 29,56 14,10 31,18 49,18 22,0 45,-8 63,-23 27,-23 59,-66 96,-132l0 -617c0,-89 -6,-144 -18,-164 -14,-23 -41,-35 -82,-43l0 -43 380 0z" class="fil5"></path>
  <path d="M9117 2440m382 -1156l0 263c61,-119 116,-200 163,-238 45,-38 90,-58 133,-58 37,0 67,15 90,43 22,28 33,68 33,119 0,56 -10,99 -33,129 -20,30 -47,46 -78,46 -35,0 -65,-15 -90,-43 -27,-28 -43,-43 -47,-46 -6,-5 -14,-8 -22,-8 -18,0 -37,8 -55,28 -27,28 -47,68 -61,119 -20,81 -31,167 -31,266l0 263 0 71c0,48 2,78 8,91 6,23 18,38 35,48 16,10 43,18 80,20l0 43 -507 0 0 -43c41,-5 69,-18 84,-40 14,-25 20,-86 20,-187l0 -640c0,-68 -2,-109 -8,-129 -6,-23 -16,-40 -29,-51 -12,-10 -35,-18 -67,-23l0 -43 382 0z" class="fil5"></path>
  <path d="M9955 2440m576 -1186l14 395 -35 0c-41,-116 -82,-197 -125,-240 -43,-43 -86,-63 -129,-63 -27,0 -51,10 -69,33 -18,23 -29,51 -29,78 0,23 6,43 20,66 20,33 80,91 178,172 96,81 159,152 192,207 31,58 45,121 45,192 0,63 -12,126 -39,187 -25,63 -61,109 -108,142 -47,35 -100,51 -155,51 -45,0 -104,-18 -178,-53 -20,-8 -35,-13 -41,-13 -22,0 -41,20 -55,63l-35 0 -16 -415 35 0c31,109 71,190 123,243 51,53 100,81 147,81 33,0 57,-13 78,-35 20,-25 31,-56 31,-89 0,-40 -10,-73 -29,-104 -20,-28 -65,-71 -135,-129 -100,-89 -165,-154 -196,-200 -43,-68 -65,-142 -65,-223 0,-89 25,-169 74,-240 49,-73 120,-109 214,-109 51,0 100,15 147,46 16,13 31,20 43,20 12,0 22,-3 29,-10 8,-5 18,-23 35,-53l35 0z" class="fil5"></path>
  <path d="M303 3796m708 -862l0 570c0,109 -32,186 -96,234 -65,48 -149,71 -252,71 -109,0 -195,-23 -261,-68 -66,-45 -99,-119 -99,-222l0 -584 269 0 0 553c0,41 9,71 26,90 18,19 47,28 84,28 32,0 58,-6 79,-21 21,-14 32,-28 36,-47 5,-17 6,-50 6,-101l0 -504 208 0z" class="fil6"></path>
  <path d="M1346 3796m766 0l-293 0 -127 -329 -81 0 0 329 -265 0 0 -862 450 0c99,0 177,23 231,70 56,47 83,107 83,183 0,50 -10,94 -30,132 -21,39 -62,72 -124,101l156 376zm-501 -513l114 0c32,0 59,-6 80,-21 19,-14 30,-35 30,-62 0,-56 -34,-83 -102,-83l-121 0 0 165z" class="fil6"></path>
  <path d="M2382 3796m783 -483l0 483 -129 0c-10,-36 -22,-66 -35,-90 -53,68 -132,103 -238,103 -111,0 -202,-39 -274,-116 -71,-78 -107,-183 -107,-315 0,-129 35,-236 103,-324 70,-88 173,-132 310,-132 102,0 185,26 248,78 62,53 103,127 121,222l-256 26c-13,-89 -52,-134 -119,-134 -87,0 -130,83 -130,247 0,101 14,165 41,198 28,32 62,48 102,48 32,0 59,-10 81,-30 23,-19 35,-45 35,-79l-143 0 0 -183 389 0z" class="fil6"></path>
  <path d="M3497 3796m648 -205l0 205 -648 0 0 -862 648 0 0 199 -389 0 0 125 314 0 0 191 -314 0 0 141 389 0z" class="fil6"></path>
  <path d="M4443 3796m736 0l-216 0 -236 -380c-31,-49 -61,-109 -90,-180 14,56 21,103 21,142l0 417 -214 0 0 -862 249 0 202 315c40,63 70,119 90,165 -14,-74 -21,-149 -21,-226l0 -254 216 0 0 862z" class="fil6"></path>
  <path d="M5448 3796m429 -655l0 655 -251 0 0 -655 -178 0 0 -207 607 0 0 207 -178 0z" class="fil6"></path>
  <path d="M6802 3796m512 -328l242 14c-12,106 -50,186 -116,243 -67,56 -149,84 -245,84 -118,0 -212,-39 -283,-116 -72,-78 -109,-185 -109,-320 0,-134 34,-244 102,-327 68,-83 163,-124 285,-124 114,0 202,31 262,94 61,63 96,146 103,251l-247 13c0,-58 -10,-99 -32,-124 -22,-26 -49,-39 -79,-39 -83,0 -124,84 -124,252 0,93 10,158 32,191 22,34 52,50 92,50 68,0 109,-48 116,-142z" class="fil6"></path>
  <path d="M7761 3796m548 0l-48 -169 -235 0 -50 169 -214 0 266 -862 280 0 270 862 -269 0zm-235 -358l138 0 -68 -249 -70 249z" class="fil6"></path>
  <path d="M8849 3796m766 0l-293 0 -127 -329 -81 0 0 329 -265 0 0 -862 450 0c99,0 177,23 231,70 56,47 83,107 83,183 0,50 -10,94 -30,132 -21,39 -62,72 -124,101l156 376zm-501 -513l114 0c32,0 59,-6 80,-21 19,-14 30,-35 30,-62 0,-56 -34,-83 -102,-83l-121 0 0 165z" class="fil6"></path>
  <path d="M9934 3796m648 -205l0 205 -648 0 0 -862 648 0 0 199 -389 0 0 125 314 0 0 191 -314 0 0 141 389 0z" class="fil6"></path>
 </g>
</svg>
